<?xml version="1.0" encoding="UTF-8"?>
<svg version="1.1" xmlns="http://www.w3.org/2000/svg" width="586" height="113">
<path d="M0 0 C193.38 0 386.76 0 586 0 C586 37.29 586 74.58 586 113 C392.62 113 199.24 113 0 113 C0 75.71 0 38.42 0 0 Z " fill="#FEFEFE" transform="translate(0,0)"/>
<path d="M0 0 C1.53527344 -0.01836914 1.53527344 -0.01836914 3.1015625 -0.03710938 C4.07867187 -0.03904297 5.05578125 -0.04097656 6.0625 -0.04296875 C7.41021484 -0.04913208 7.41021484 -0.04913208 8.78515625 -0.05541992 C11 0.1875 11 0.1875 13 2.1875 C12.59950753 6.76646396 11.22940707 10.97727548 9.75 15.3125 C9.35296875 16.51132812 8.9559375 17.71015625 8.546875 18.9453125 C6.71837777 22.77776882 5.78065589 24.21750306 2 26.1875 C-1.90976391 26.706736 -5.75024852 26.65468457 -9.6875 26.5625 C-11.27401367 26.56056641 -11.27401367 26.56056641 -12.89257812 26.55859375 C-20.7189217 26.4685783 -20.7189217 26.4685783 -23 24.1875 C-22.84045166 16.84827646 -19.8255088 8.36957397 -14.95703125 2.88671875 C-10.53594883 -0.95194562 -5.59655379 0.00352428 0 0 Z " fill="#3856E8" transform="translate(150,42.8125)"/>
<path d="M0 0 C1.21880859 -0.01224609 2.43761719 -0.02449219 3.69335938 -0.03710938 C5.43649414 -0.04000977 5.43649414 -0.04000977 7.21484375 -0.04296875 C8.28726318 -0.04707764 9.35968262 -0.05118652 10.46459961 -0.05541992 C13.0625 0.1875 13.0625 0.1875 15.0625 2.1875 C14.86642548 8.0697356 13.85287662 11.50527005 10.0625 16.1875 C7.0625 18.1875 7.0625 18.1875 3.0625 18.1875 C3.7225 19.13625 4.3825 20.085 5.0625 21.0625 C7.0625 24.1875 7.0625 24.1875 7.0625 26.1875 C1.81315617 26.71243438 1.81315617 26.71243438 -0.9375 26.1875 C-4.9375 21.5875 -4.9375 21.5875 -4.9375 18.1875 C-8.8975 18.6825 -8.8975 18.6825 -12.9375 19.1875 C-12.6075 19.8475 -12.2775 20.5075 -11.9375 21.1875 C-12.875 23.8125 -12.875 23.8125 -13.9375 26.1875 C-16.5775 26.1875 -19.2175 26.1875 -21.9375 26.1875 C-20.75440739 21.19181932 -19.05872805 16.36693961 -17.4375 11.5 C-17.11652344 10.52482422 -16.79554687 9.54964844 -16.46484375 8.54492188 C-16.15675781 7.61873047 -15.84867187 6.69253906 -15.53125 5.73828125 C-15.10875977 4.46464722 -15.10875977 4.46464722 -14.67773438 3.1652832 C-12.69537487 -2.13125188 -4.79870097 0.00252963 0 0 Z " fill="#3C5AF1" transform="translate(111.9375,42.8125)"/>
<path d="M0 0 C4.29161047 -0.05783842 8.58312145 -0.0935412 12.875 -0.125 C14.09832031 -0.14175781 15.32164062 -0.15851562 16.58203125 -0.17578125 C17.74863281 -0.18222656 18.91523438 -0.18867187 20.1171875 -0.1953125 C21.19597168 -0.20578613 22.27475586 -0.21625977 23.38623047 -0.22705078 C26 0 26 0 28 2 C27.66386917 7.82626767 26.33476847 12.74054664 22.0625 16.875 C20 18 20 18 16 18 C16.66 18.94875 17.32 19.8975 18 20.875 C20 24 20 24 20 26 C17.36 26 14.72 26 12 26 C10.68 23.69 9.36 21.38 8 19 C5.36 19 2.72 19 0 19 C0.33 19.66 0.66 20.32 1 21 C0.0625 23.625 0.0625 23.625 -1 26 C-3.64 26 -6.28 26 -9 26 C-8.37658609 22.4617797 -7.44678155 19.26706972 -6.15234375 15.91796875 C-5.79462891 14.98662109 -5.43691406 14.05527344 -5.06835938 13.09570312 C-4.69517578 12.13599609 -4.32199219 11.17628906 -3.9375 10.1875 C-3.56044922 9.20845703 -3.18339844 8.22941406 -2.79492188 7.22070312 C-1.86684405 4.8123999 -0.93509884 2.40558386 0 0 Z " fill="#2F4AD0" transform="translate(239,43)"/>
<path d="M0 0 C1.21880859 -0.01224609 2.43761719 -0.02449219 3.69335938 -0.03710938 C5.43649414 -0.04000977 5.43649414 -0.04000977 7.21484375 -0.04296875 C8.28726318 -0.04707764 9.35968262 -0.05118652 10.46459961 -0.05541992 C13.0625 0.1875 13.0625 0.1875 15.0625 2.1875 C14.86642548 8.0697356 13.85287662 11.50527005 10.0625 16.1875 C6.93132433 18.27495045 5.99303776 18.46403996 2.39453125 18.6015625 C1.50185547 18.64023437 0.60917969 18.67890625 -0.31054688 18.71875 C-1.70370117 18.76515625 -1.70370117 18.76515625 -3.125 18.8125 C-4.06537109 18.85117187 -5.00574219 18.88984375 -5.97460938 18.9296875 C-8.2953771 19.02393187 -10.61613748 19.10954025 -12.9375 19.1875 C-12.6075 19.8475 -12.2775 20.5075 -11.9375 21.1875 C-12.875 23.8125 -12.875 23.8125 -13.9375 26.1875 C-16.5775 26.1875 -19.2175 26.1875 -21.9375 26.1875 C-20.84827641 20.08784791 -19.0496961 14.47123884 -16.875 8.6875 C-16.6054248 7.96884766 -16.33584961 7.25019531 -16.05810547 6.50976562 C-12.79522231 -2.01984763 -8.56706625 0.00451611 0 0 Z " fill="#2740B8" transform="translate(368.9375,42.8125)"/>
<path d="M0 0 C0.97066406 -0.00257812 1.94132812 -0.00515625 2.94140625 -0.0078125 C4.45154297 0.00378906 4.45154297 0.00378906 5.9921875 0.015625 C7.00667969 0.00789063 8.02117187 0.00015625 9.06640625 -0.0078125 C10.03449219 -0.00523438 11.00257813 -0.00265625 12 0 C12.88574707 0.00225586 13.77149414 0.00451172 14.68408203 0.00683594 C16.8671875 0.265625 16.8671875 0.265625 18.8671875 2.265625 C18.4921875 5.390625 18.4921875 5.390625 17.8671875 8.265625 C15.2271875 8.265625 12.5871875 8.265625 9.8671875 8.265625 C9.8671875 7.605625 9.8671875 6.945625 9.8671875 6.265625 C4.9171875 6.595625 -0.0328125 6.925625 -5.1328125 7.265625 C-4.8028125 8.255625 -4.4728125 9.245625 -4.1328125 10.265625 C-2.32683594 10.24822266 -2.32683594 10.24822266 -0.484375 10.23046875 C1.09114429 10.22109066 2.66666525 10.21199048 4.2421875 10.203125 C5.03625 10.19474609 5.8303125 10.18636719 6.6484375 10.17773438 C12.640625 10.15234375 12.640625 10.15234375 14.8671875 11.265625 C14.61329592 17.09243677 14.25602737 21.00978028 9.8671875 25.265625 C7.32443201 26.53700274 5.51910549 26.39505 2.67578125 26.3984375 C1.64904297 26.39972656 0.62230469 26.40101562 -0.43554688 26.40234375 C-1.51126953 26.39847656 -2.58699219 26.39460938 -3.6953125 26.390625 C-4.77490234 26.39449219 -5.85449219 26.39835937 -6.96679688 26.40234375 C-8.5049707 26.40041016 -8.5049707 26.40041016 -10.07421875 26.3984375 C-11.01982666 26.39730957 -11.96543457 26.39618164 -12.93969727 26.39501953 C-15.1328125 26.265625 -15.1328125 26.265625 -16.1328125 25.265625 C-16.17374187 22.93265067 -16.17522973 20.59857275 -16.1328125 18.265625 C-13.4928125 18.265625 -10.8528125 18.265625 -8.1328125 18.265625 C-8.1328125 18.925625 -8.1328125 19.585625 -8.1328125 20.265625 C-3.5128125 20.265625 1.1071875 20.265625 5.8671875 20.265625 C5.8671875 19.275625 5.8671875 18.285625 5.8671875 17.265625 C4.06121094 17.19214844 4.06121094 17.19214844 2.21875 17.1171875 C0.64320552 17.04216157 -0.93231416 16.96661367 -2.5078125 16.890625 C-3.301875 16.8596875 -4.0959375 16.82875 -4.9140625 16.796875 C-10.90625 16.4921875 -10.90625 16.4921875 -13.1328125 14.265625 C-12.86422478 9.52057534 -12.05256495 6.05048929 -9.1328125 2.265625 C-6.03643777 0.32223687 -3.62352294 0.0092051 0 0 Z " fill="#1B319F" transform="translate(466.1328125,42.734375)"/>
<path d="M0 0 C8.91 0 17.82 0 27 0 C28.44656348 2.89312696 28.29947586 4.76566066 28 8 C26.35087557 12.3922225 24.9563983 15.36240113 21 18 C18.73168945 18.31884766 18.73168945 18.31884766 16.11328125 18.4140625 C15.17548828 18.45273437 14.23769531 18.49140625 13.27148438 18.53125 C11.80678711 18.57765625 11.80678711 18.57765625 10.3125 18.625 C9.32443359 18.66367187 8.33636719 18.70234375 7.31835938 18.7421875 C4.87909293 18.83645867 2.43983405 18.92206218 0 19 C0.33 19.99 0.66 20.98 1 22 C0.0625 24.1875 0.0625 24.1875 -1 26 C-3.64 26 -6.28 26 -9 26 C-8.06442295 23.16601904 -7.12659191 20.33281627 -6.1875 17.5 C-5.79594727 16.31277344 -5.79594727 16.31277344 -5.39648438 15.1015625 C-5.13544922 14.31523438 -4.87441406 13.52890625 -4.60546875 12.71875 C-4.36981201 12.00654297 -4.13415527 11.29433594 -3.89135742 10.56054688 C-2.6579886 7.01752517 -1.31726061 3.51269496 0 0 Z " fill="#3552E1" transform="translate(171,43)"/>
<path d="M0 0 C4.29161047 -0.05783842 8.58312145 -0.0935412 12.875 -0.125 C14.09832031 -0.14175781 15.32164063 -0.15851562 16.58203125 -0.17578125 C17.74863281 -0.18222656 18.91523437 -0.18867187 20.1171875 -0.1953125 C21.19597168 -0.20578613 22.27475586 -0.21625977 23.38623047 -0.22705078 C26 0 26 0 28 2 C27.67531202 7.62792492 26.48951498 12.74148135 22.19238281 16.63989258 C19.67137076 18.20387456 18.17800256 18.41737171 15.234375 18.51171875 C14.34492187 18.54716797 13.45546875 18.58261719 12.5390625 18.61914062 C11.15847656 18.65297852 11.15847656 18.65297852 9.75 18.6875 C8.34621094 18.73874023 8.34621094 18.73874023 6.9140625 18.79101562 C4.60949467 18.87332162 2.30529881 18.9425263 0 19 C0.33 19.66 0.66 20.32 1 21 C0.0625 23.625 0.0625 23.625 -1 26 C-3.64 26 -6.28 26 -9 26 C-8.37658609 22.4617797 -7.44678155 19.26706972 -6.15234375 15.91796875 C-5.79462891 14.98662109 -5.43691406 14.05527344 -5.06835938 13.09570312 C-4.69517578 12.13599609 -4.32199219 11.17628906 -3.9375 10.1875 C-3.56044922 9.20845703 -3.18339844 8.22941406 -2.79492188 7.22070312 C-1.86684405 4.8123999 -0.93509884 2.40558386 0 0 Z " fill="#3E5EF9" transform="translate(63,43)"/>
<path d="M0 0 C1.53333984 0.03383789 1.53333984 0.03383789 3.09765625 0.06835938 C5.60829581 0.12701918 8.11587379 0.20904072 10.625 0.3125 C9.965 2.2925 9.305 4.2725 8.625 6.3125 C-1.275 6.8075 -1.275 6.8075 -11.375 7.3125 C-11.045 8.3025 -10.715 9.2925 -10.375 10.3125 C-6.085 10.3125 -1.795 10.3125 2.625 10.3125 C1.965 12.2925 1.305 14.2725 0.625 16.3125 C-4.325 16.6425 -9.275 16.9725 -14.375 17.3125 C-14.375 18.3025 -14.375 19.2925 -14.375 20.3125 C-8.765 20.3125 -3.155 20.3125 2.625 20.3125 C2.295 22.2925 1.965 24.2725 1.625 26.3125 C-2.18748426 26.34137236 -5.9999407 26.35925492 -9.8125 26.375 C-10.90111328 26.38337891 -11.98972656 26.39175781 -13.11132812 26.40039062 C-14.14580078 26.40361328 -15.18027344 26.40683594 -16.24609375 26.41015625 C-17.20443115 26.41539307 -18.16276855 26.42062988 -19.15014648 26.42602539 C-21.375 26.3125 -21.375 26.3125 -22.375 25.3125 C-23.33798731 18.25059304 -20.7261409 11.46924723 -17.375 5.3125 C-12.26624339 -0.64502155 -7.52566891 -0.31559257 0 0 Z " fill="#182D97" transform="translate(508.375,42.6875)"/>
<path d="M0 0 C1.53333984 0.03383789 1.53333984 0.03383789 3.09765625 0.06835938 C5.60829581 0.12701918 8.11587379 0.20904072 10.625 0.3125 C9.965 2.2925 9.305 4.2725 8.625 6.3125 C-1.275 6.8075 -1.275 6.8075 -11.375 7.3125 C-11.045 8.3025 -10.715 9.2925 -10.375 10.3125 C-6.085 10.3125 -1.795 10.3125 2.625 10.3125 C1.965 12.2925 1.305 14.2725 0.625 16.3125 C-4.325 16.6425 -9.275 16.9725 -14.375 17.3125 C-14.375 18.3025 -14.375 19.2925 -14.375 20.3125 C-8.765 20.3125 -3.155 20.3125 2.625 20.3125 C2.295 22.2925 1.965 24.2725 1.625 26.3125 C-2.18748426 26.34137236 -5.9999407 26.35925492 -9.8125 26.375 C-10.90111328 26.38337891 -11.98972656 26.39175781 -13.11132812 26.40039062 C-14.14580078 26.40361328 -15.18027344 26.40683594 -16.24609375 26.41015625 C-17.20443115 26.41539307 -18.16276855 26.42062988 -19.15014648 26.42602539 C-21.375 26.3125 -21.375 26.3125 -22.375 25.3125 C-23.33798731 18.25059304 -20.7261409 11.46924723 -17.375 5.3125 C-12.26624339 -0.64502155 -7.52566891 -0.31559257 0 0 Z " fill="#304CD9" transform="translate(222.375,42.6875)"/>
<path d="M0 0 C2.64 0 5.28 0 8 0 C6.32576348 9.13219918 3.9376655 20.3808618 -4 26 C-7.91359579 26.65434626 -11.73097978 26.56182688 -15.6875 26.4375 C-17.27401367 26.42879883 -17.27401367 26.42879883 -18.89257812 26.41992188 C-26.7048752 26.2951248 -26.7048752 26.2951248 -29 24 C-29 22.68 -29 21.36 -29 20 C-21.74 19.67 -14.48 19.34 -7 19 C-4.69 12.73 -2.38 6.46 0 0 Z " fill="#233BB0" transform="translate(413,43)"/>
<path d="M0 0 C9.24 0 18.48 0 28 0 C27.34 1.98 26.68 3.96 26 6 C22.37 6.33 18.74 6.66 15 7 C14.7525 8.27875 14.505 9.5575 14.25 10.875 C13.08835439 16.169747 11.13659734 21.03189259 9 26 C6.36 26 3.72 26 1 26 C2.92830011 19.13408294 5.27021145 12.58914477 8 6 C4.7 6 1.4 6 -2 6 C-1.34 4.02 -0.68 2.04 0 0 Z " fill="#2E48C9" transform="translate(273,43)"/>
<path d="M0 0 C2.64 0 5.28 0 8 0 C9.49821059 3.37097383 10 5.20442119 10 9 C11.29243468 7.8758824 12.58392075 6.75067408 13.875 5.625 C14.59429687 4.99851562 15.31359375 4.37203125 16.0546875 3.7265625 C17.4076598 2.52573166 18.7208345 1.2791655 20 0 C23.625 -0.125 23.625 -0.125 27 0 C25.40348438 4.15882465 22.31166761 6.67452293 19.125 9.625 C13.992946 14.52612676 10.7977813 18.99485218 9 26 C6.36 26 3.72 26 1 26 C2 20 2 20 2.625 17.25 C3.07224825 13.3738485 2.45615691 10.41410529 1.5625 6.625 C1.27503906 5.37976562 0.98757813 4.13453125 0.69140625 2.8515625 C0.46324219 1.91054688 0.23507812 0.96953125 0 0 Z " fill="#2B45C2" transform="translate(304,43)"/>
<path d="M0 0 C2.64 0 5.28 0 8 0 C6.3186083 6.48707154 4.46937673 12.7677635 2 19 C6.95 19.33 11.9 19.66 17 20 C16.34 21.98 15.68 23.96 15 26 C7.08 26 -0.84 26 -9 26 C-7.88625 22.638125 -6.7725 19.27625 -5.625 15.8125 C-5.27775879 14.76167236 -4.93051758 13.71084473 -4.57275391 12.62817383 C-4.29351074 11.78794678 -4.01426758 10.94771973 -3.7265625 10.08203125 C-3.44377441 9.22843018 -3.16098633 8.3748291 -2.86962891 7.49536133 C-1.98715604 4.96314483 -1.01453525 2.48191861 0 0 Z " fill="#1E35A8" transform="translate(428,43)"/>
<path d="M0 0 C5.61 0 11.22 0 17 0 C14.125 10.625 14.125 10.625 13 14 C8.38 14 3.76 14 -1 14 C-0.27365611 9.64193667 0.53832085 6.09270163 2 2 C1.34 1.34 0.68 0.68 0 0 Z " fill="#FBFBFE" transform="translate(137,49)"/>
<path d="M0 0 C2.31 0 4.62 0 7 0 C6.3727478 3.5354215 5.47400537 6.77291032 4.1875 10.125 C3.71376953 11.39730469 3.71376953 11.39730469 3.23046875 12.6953125 C1.79603345 15.38203258 0.66551732 16.53564039 -2 18 C-4.75 18.1875 -4.75 18.1875 -7 18 C-5.26375242 11.5811453 -3.14819255 5.86215164 0 0 Z " fill="#2B42B3" transform="translate(392,43)"/>
<path d="M0 0 C5.61 0 11.22 0 17 0 C16.34 1.98 15.68 3.96 15 6 C10.38 6 5.76 6 1 6 C0.67 4.02 0.34 2.04 0 0 Z " fill="#FBFBFE" transform="translate(242,49)"/>
<path d="M0 0 C5.61 0 11.22 0 17 0 C16.34 1.98 15.68 3.96 15 6 C10.38 6 5.76 6 1 6 C1.33 4.35 1.66 2.7 2 1 C1.34 0.67 0.68 0.34 0 0 Z " fill="#FAFBFE" transform="translate(174,49)"/>
<path d="M0 0 C5.28 0 10.56 0 16 0 C15.67 1.98 15.34 3.96 15 6 C10.38 6 5.76 6 1 6 C0.67 4.02 0.34 2.04 0 0 Z " fill="#FAFBFD" transform="translate(359,49)"/>
<path d="M0 0 C5.28 0 10.56 0 16 0 C15.67 1.98 15.34 3.96 15 6 C10.38 6 5.76 6 1 6 C0.67 4.02 0.34 2.04 0 0 Z " fill="#FBFCFE" transform="translate(102,49)"/>
<path d="M0 0 C5.28 0 10.56 0 16 0 C15.67 1.98 15.34 3.96 15 6 C10.38 6 5.76 6 1 6 C0.67 4.02 0.34 2.04 0 0 Z " fill="#FBFCFE" transform="translate(66,49)"/>
</svg>
